<svg width="32" height="38" viewBox="0 0 32 38" fill="none" xmlns="http://www.w3.org/2000/svg">
<path d="M7.83503 33.4431C7.83245 33.4375 7.83016 33.4319 7.82758 33.4263C7.82615 33.4234 7.82471 33.4207 7.82328 33.4178L7.83503 33.4431Z" fill="#222C36"/>
<path d="M8.6725 34.7079L8.6722 34.7075C8.6716 34.7069 8.671 34.7063 8.6704 34.7057C8.67115 34.7064 8.67175 34.7073 8.6725 34.7079Z" fill="#222C36"/>
<path d="M1.46419 7.00763L1.46447 7.0062C1.46562 6.99889 1.46633 6.99144 1.46762 6.98414L1.46419 7.00763Z" fill="#222C36"/>
<path d="M1.88928 10.8602L1.88915 10.8593L1.88889 10.8583C1.88889 10.8592 1.88928 10.8604 1.88928 10.8613V10.8602Z" fill="#222C36"/>
<path d="M10.2194 35.8659L10.218 35.8651C10.2158 35.864 10.2143 35.8635 10.2121 35.8624C10.2147 35.8637 10.2171 35.8648 10.2194 35.8659Z" fill="#222C36"/>
<path d="M10.2373 35.875C10.2356 35.8738 10.2334 35.8727 10.2317 35.8717L10.2251 35.8685C10.2295 35.8707 10.2334 35.8727 10.2373 35.875Z" fill="#222C36"/>
<path d="M9.80674 35.6252C9.80516 35.6242 9.80373 35.6232 9.80215 35.6222C9.79556 35.618 9.78883 35.6141 9.7821 35.61C9.79055 35.615 9.79828 35.6202 9.80674 35.6252Z" fill="#222C36"/>
<path d="M9.34607 35.3176L9.34532 35.3169C9.34472 35.3164 9.34367 35.3157 9.34367 35.3157C9.34442 35.3164 9.34517 35.317 9.34607 35.3176Z" fill="#222C36"/>
<path d="M9.34288 35.3152L9.34138 35.3141C9.34213 35.3147 9.34292 35.3152 9.34367 35.3157L9.34288 35.3152Z" fill="#222C36"/>
<path d="M9.3392 35.3121C9.3392 35.3121 9.33771 35.3111 9.33711 35.3105C9.33786 35.3111 9.33845 35.3115 9.3392 35.3121Z" fill="#222C36"/>
<path d="M9.33672 35.3101C9.33587 35.3093 9.33501 35.3086 9.33401 35.3081C9.33016 35.3051 9.32617 35.3024 9.32232 35.2997C9.32717 35.3031 9.33187 35.3066 9.33672 35.3101Z" fill="#222C36"/>
<path d="M10.9159 36.1041C10.9184 36.1046 10.9209 36.105 10.9235 36.1056C10.9223 36.1053 10.9212 36.105 10.92 36.1047C10.9186 36.1045 10.9171 36.1043 10.9159 36.1041Z" fill="#222C36"/>
<path d="M31.1122 26.7859C31.092 26.6805 31.0536 26.4855 31.0019 26.2955C30.9945 26.2543 30.9883 26.2128 30.9804 26.1717C30.9784 26.1622 30.9765 26.1526 30.9745 26.143C30.9714 26.1315 30.9678 26.1201 30.9648 26.1086C30.96 26.0908 30.9552 26.0728 30.9502 26.0549C30.9489 26.0508 30.9473 26.0469 30.946 26.0429C30.9079 25.9053 30.8691 25.7677 30.8291 25.6309C30.6131 24.9739 30.397 24.3173 30.1799 23.6615C28.0994 17.3286 26.3943 10.8827 24.563 4.47487C24.4743 4.03035 24.3269 3.48381 24.299 3.40225C23.8063 1.55206 22.6057 0.200803 20.5671 0.343316C19.8134 0.368713 19.0616 0.461883 18.3312 0.655044C17.6304 0.81323 16.9294 0.969819 16.2256 1.10566C13.0873 1.77802 9.94155 2.41468 6.80947 3.11636C6.25785 3.23884 5.70623 3.36351 5.15577 3.49107C5.01805 3.53127 4.88134 3.57321 4.74536 3.61805C4.73404 3.62197 4.72272 3.62546 4.7114 3.62937C4.70516 3.63112 4.6995 3.63329 4.69326 3.63561C4.69384 3.63503 4.69442 3.63503 4.69558 3.63445C4.68659 3.63736 4.67744 3.64011 4.6683 3.64345C4.67062 3.64287 4.67338 3.64171 4.6757 3.64113C4.6728 3.64229 4.67004 3.64345 4.66714 3.64403H4.66772C4.52376 3.69221 4.38037 3.74098 4.23743 3.79249C4.13148 3.83618 4.02656 3.88204 3.92221 3.93022C3.92512 3.92906 3.92729 3.9279 3.9302 3.92688C3.73457 4.02049 3.54184 4.12193 3.35304 4.22903C3.30616 4.25733 3.26016 4.28708 3.21415 4.31712C3.21284 4.3177 3.21139 4.31828 3.21009 4.31886C3.20472 4.32235 3.19949 4.32626 3.19412 4.32989C3.13361 4.36995 3.07382 4.41102 3.0146 4.45354H3.01519C2.92477 4.51913 2.83596 4.5872 2.75033 4.6602C2.75396 4.65686 2.7573 4.65337 2.76093 4.65004C2.75527 4.65512 2.74874 4.66092 2.74308 4.666C2.74438 4.66484 2.74612 4.66382 2.74758 4.66266C2.73248 4.67616 2.71855 4.69082 2.70375 4.70446C2.69809 4.70896 2.69214 4.71317 2.68648 4.71766C2.60768 4.78994 2.53119 4.86453 2.45573 4.94043C2.44891 4.9474 2.44136 4.95364 2.43454 4.9606L2.43425 4.96089L2.43353 4.96162L2.43454 4.9606C2.43382 4.96133 2.43324 4.96191 2.43251 4.96249C2.43585 4.95915 2.4386 4.95523 2.44209 4.9519C2.42627 4.96888 2.40973 4.98586 2.39391 5.00298L2.39318 5.00385C2.39057 5.00661 2.38796 5.00922 2.38534 5.01198C2.36836 5.03215 2.35153 5.05232 2.3347 5.07249C2.24849 5.1751 2.16345 5.27654 2.08523 5.3848C2.04532 5.44126 2.00831 5.4996 1.97261 5.55866C1.94953 5.59683 1.92661 5.635 1.90498 5.67346C1.88887 5.70306 1.87422 5.73383 1.85883 5.76416C1.81312 5.85414 1.76943 5.94571 1.7304 6.03859L1.73214 6.03525C1.7317 6.03627 1.73141 6.03728 1.73098 6.0383V6.03786C1.69078 6.13974 1.65464 6.24322 1.62097 6.34727L1.62025 6.34437C1.60269 6.39821 1.58629 6.45205 1.5709 6.50589C1.56786 6.51736 1.56553 6.52911 1.56263 6.54058C1.54507 6.60864 1.52824 6.67699 1.51344 6.74578C1.50748 6.77365 1.50284 6.8018 1.49733 6.82966C1.48847 6.8748 1.47875 6.91993 1.47135 6.96536C1.47135 6.9671 1.47135 6.96869 1.4712 6.97044C1.46946 6.98088 1.467 6.99119 1.4654 7.00164C1.46641 6.99554 1.467 6.98945 1.46801 6.98335C1.46714 6.98988 1.46612 6.99641 1.46525 7.0028C1.46525 7.00367 1.46496 7.00454 1.46482 7.00541C1.46163 7.02616 1.45916 7.04692 1.45611 7.06767C1.36309 7.33775 1.29285 7.56167 1.25947 7.66413C0.37798 10.4691 0.878515 12.2498 1.35249 15.0031C1.81558 17.4958 2.3389 19.9748 2.93638 22.4413C3.43576 24.358 3.94892 26.2701 4.39953 28.1981C4.8037 29.8268 5.19148 31.464 5.76748 33.0422C6.5333 35.4017 7.86946 37.3035 10.5067 37.5926C10.7119 37.6215 10.9177 37.6459 11.124 37.6663C11.1258 37.6658 11.1279 37.6658 11.1297 37.6652C11.1314 37.6652 11.133 37.6646 11.1348 37.6646H11.1353C11.1591 37.6623 11.1818 37.6617 11.2056 37.6607C11.2169 37.6601 11.2276 37.6595 11.239 37.6595C11.2673 37.6578 11.2963 37.6556 11.3246 37.6539C11.3675 37.6513 11.4106 37.6486 11.4537 37.6459C11.4642 37.6452 11.4744 37.6446 11.4845 37.644C11.4983 37.6431 11.5121 37.6423 11.5257 37.6414C11.6646 37.6334 11.8035 37.6238 11.9424 37.6158C12.083 37.6084 12.2236 37.6 12.3641 37.5926C12.3683 37.5923 12.3724 37.5922 12.3766 37.592C12.3889 37.5915 12.4013 37.591 12.4137 37.5903C12.4911 37.5809 12.5683 37.5713 12.6452 37.5604H12.6446C12.8445 37.5309 13.0433 37.496 13.2421 37.4635C13.2452 37.4629 13.2484 37.4622 13.2514 37.4614C13.2521 37.4614 13.2527 37.4611 13.2534 37.4611C13.2952 37.4523 13.3372 37.4434 13.379 37.4346C13.4878 37.4114 13.5967 37.3881 13.7055 37.3654C13.8161 37.3427 13.9265 37.3205 14.0377 37.3002C14.1516 37.2791 14.265 37.2577 14.379 37.2395C14.3779 37.2395 14.3769 37.2395 14.376 37.2398C14.3885 37.2376 14.4011 37.2355 14.4141 37.2339C14.4128 37.2339 14.4112 37.234 14.4099 37.2342C14.4224 37.232 14.4343 37.2304 14.4464 37.2282C14.4449 37.2286 14.4435 37.2286 14.4424 37.2292C14.4465 37.2285 14.4506 37.2279 14.4546 37.2273C14.4673 37.2252 14.48 37.223 14.4924 37.2214L14.4947 37.2208C14.5363 37.214 14.5778 37.2072 14.6195 37.2003C14.6281 37.1992 14.6359 37.1974 14.6445 37.1958C14.6445 37.1947 14.6439 37.1935 14.6439 37.1919C14.6434 37.1898 14.6427 37.188 14.6424 37.1858C15.7655 36.9168 16.8901 36.6554 18.0163 36.3977C19.696 36.0025 21.3604 35.5422 23.0061 35.0246C24.1552 34.6817 25.3031 34.2701 26.3803 33.7316C27.8241 33.0462 29.1819 32.1188 30.1291 30.8115C30.26 30.6139 30.6932 30.0453 30.8423 29.6198C30.956 29.3623 31.0431 29.0943 31.1016 28.8201C31.1865 28.508 31.2202 28.1868 31.216 27.8635C31.2467 27.5082 31.1965 27.1447 31.1126 26.7853L31.1122 26.7859ZM13.709 2.4646C14.2235 2.34763 14.7376 2.22907 15.2517 2.11006C15.4631 2.11921 15.7509 1.99614 15.9211 1.98772C17.4722 1.7474 18.9506 1.19694 20.5288 1.12147C21.1772 1.11393 21.8065 1.31565 22.3245 1.68006C22.5083 1.82925 22.6728 1.99077 22.8208 2.16478C23.4085 2.99663 23.7256 3.97376 24.0294 4.94435C24.0442 5.00269 24.0586 5.06117 24.0722 5.11951C25.9231 12.2136 27.9518 19.2635 30.2355 26.2294C30.279 26.4762 30.3194 26.7237 30.3485 26.9727C30.5011 28.1198 30.1146 29.3231 29.4016 30.2286C28.9403 30.8093 28.2289 31.1605 27.5519 31.4467C27.3366 31.5271 27.1181 31.5981 26.8991 31.6676C24.0427 32.496 21.1568 33.3358 18.2721 34.0585C17.2641 34.3193 16.2635 34.5977 15.2654 34.8831C14.3097 35.1103 13.3558 35.369 12.3705 35.3947C10.412 35.4361 9.0618 34.2318 8.38146 32.4658C8.23488 32.124 8.10819 31.7728 7.9828 31.421C7.85901 30.9476 7.73362 30.4748 7.61244 30.0009C6.56203 26.1675 5.63628 22.3036 4.70603 18.4396C4.09187 15.9429 3.40267 13.4652 2.75396 10.9776C2.73669 10.8711 2.72015 10.7646 2.70244 10.6582C2.52423 9.65626 2.28666 8.66085 2.26141 7.63902C2.24994 7.14444 2.33963 6.64536 2.52075 6.18139C3.02259 5.29483 3.96038 4.80547 4.90848 4.43859C7.83492 3.75012 10.7765 3.12391 13.709 2.4646ZM25.4949 33.1506C25.4924 33.1517 25.4902 33.1527 25.4876 33.1537C25.4846 33.1551 25.4815 33.1567 25.4783 33.1582C25.4808 33.157 25.4834 33.1559 25.4859 33.1547C24.4462 33.6496 23.3532 34.0192 22.2529 34.3514C20.3669 34.967 18.4145 35.4557 16.4803 35.924C15.7005 36.0997 14.9238 36.3042 14.1448 36.4948C13.4034 36.631 12.6622 36.7671 11.9065 36.7846C11.7668 36.7924 11.6269 36.7956 11.487 36.7976C11.3616 36.7898 11.2364 36.7817 11.1111 36.7724C10.3411 36.6981 9.58687 36.4778 8.8743 36.1629C7.8014 35.4738 7.1495 34.2772 6.51269 32.3628C5.65326 29.843 5.15606 27.2177 4.4464 24.6542C3.73326 22.0675 3.0654 19.4705 2.45326 16.8576C2.04459 15.0141 1.52925 13.2295 1.34335 11.3361C1.30039 10.501 1.36526 9.66453 1.51518 8.83979C1.53375 8.95095 1.55088 9.06226 1.57076 9.17328L1.57119 9.17386C1.60994 9.38865 1.65029 9.60314 1.68904 9.81764C1.68729 9.80966 1.68613 9.8024 1.68454 9.79442C1.75086 10.1465 1.81544 10.4986 1.88742 10.8489C1.888 10.8512 1.888 10.854 1.88858 10.8563L1.88887 10.8569L1.88916 10.8579C1.88916 10.8579 1.88931 10.8585 1.88989 10.8591V10.8602L1.89163 10.8688C1.89279 10.8721 1.89337 10.875 1.89395 10.8784L1.89337 10.8778C1.96826 11.2253 2.04648 11.5722 2.1099 11.9219C2.59171 13.753 3.09283 15.5789 3.5549 17.4156C4.71445 22.2126 5.89852 27.0058 7.16909 31.7749C7.26545 32.0374 7.37444 32.2957 7.47487 32.5565C7.47458 32.5556 7.47414 32.5549 7.47385 32.554C7.58676 32.8465 7.69502 33.1419 7.82796 33.4259C7.91634 33.61 8.01183 33.7898 8.11501 33.9661C8.11443 33.9649 8.11385 33.9644 8.11385 33.9632C8.13373 33.9963 8.15507 34.0282 8.17553 34.0607L8.17408 34.0612C8.18075 34.0717 8.18844 34.0815 8.19527 34.0919C8.24969 34.1768 8.306 34.2604 8.36608 34.3414C8.36477 34.3396 8.36332 34.3381 8.36201 34.3363C8.36767 34.3443 8.37333 34.3518 8.37899 34.3598C8.37595 34.3558 8.37319 34.351 8.37014 34.3468C8.46447 34.4706 8.56504 34.5894 8.66997 34.7042C8.66953 34.7036 8.66852 34.7028 8.66852 34.7028C8.66924 34.7035 8.66997 34.7043 8.67084 34.7051C8.67142 34.7057 8.67186 34.7062 8.67244 34.7068C8.7569 34.7964 8.84383 34.8839 8.93352 34.9685C8.93308 34.9666 8.9325 34.9648 8.93206 34.963C8.95673 34.9863 8.97966 35.0117 9.00463 35.0348C9.00724 35.037 9.00971 35.0392 9.01232 35.0415C9.11623 35.1342 9.22333 35.2224 9.33435 35.3075C9.33537 35.3082 9.33638 35.3089 9.3374 35.3098C9.33812 35.3104 9.33885 35.311 9.33972 35.3114C9.3403 35.312 9.34132 35.3126 9.3419 35.3131L9.34335 35.3142C9.34422 35.3147 9.34494 35.3153 9.34567 35.3159C9.49384 35.4231 9.64796 35.524 9.80267 35.622C9.93952 35.707 10.0774 35.7886 10.2189 35.8642C10.2199 35.8648 10.2209 35.8653 10.2219 35.8659L10.2224 35.8662C10.2254 35.8678 10.2286 35.8694 10.2318 35.871C10.2868 35.899 10.3421 35.9266 10.3975 35.9536C10.4202 35.9613 10.4428 35.9688 10.4655 35.9764C10.4655 35.9764 10.4663 35.9768 10.4669 35.9771L10.465 35.9765L10.4655 35.9764C10.4655 35.9764 10.4663 35.9768 10.4669 35.9771L10.4679 35.9775C10.6175 36.0269 10.7677 36.0682 10.9209 36.1039C10.9222 36.1044 10.9236 36.1048 10.9251 36.1052L10.9265 36.1058H10.9275C10.9304 36.1064 10.9338 36.107 10.9365 36.1076H10.9336C10.9352 36.1081 10.9368 36.1081 10.9388 36.1086L10.9375 36.1081C10.9584 36.1125 10.9795 36.1158 11.0005 36.12C10.9994 36.1203 10.9982 36.1208 10.9972 36.1211C11.1509 36.1517 11.3056 36.1761 11.4603 36.1981C11.4693 36.1993 11.479 36.2004 11.488 36.202C11.4847 36.201 11.4813 36.2006 11.478 36.2001C11.482 36.2007 11.4861 36.2009 11.49 36.2015C11.6204 36.2187 11.7513 36.2321 11.8824 36.243C11.8936 36.2438 11.9047 36.2456 11.9158 36.2464L11.9163 36.2456C11.9615 36.2492 12.0067 36.2537 12.052 36.2565H12.0621C12.0655 36.2565 12.0684 36.257 12.0717 36.257C12.1776 36.261 12.2837 36.2627 12.3897 36.2627C12.4645 36.2627 12.5399 36.2621 12.6147 36.2604H12.6136C12.6192 36.2604 12.6243 36.2604 12.63 36.2598C12.8131 36.2536 12.9961 36.2422 13.1781 36.2241C13.3578 36.2054 13.537 36.181 13.7155 36.1521H13.7173C13.7184 36.1515 13.719 36.1515 13.7202 36.1515C13.7207 36.151 13.7219 36.151 13.7219 36.151H13.7231C13.7231 36.151 13.7242 36.1504 13.7254 36.1504C13.7287 36.1498 13.7328 36.1492 13.7361 36.1486C13.7379 36.148 13.7395 36.148 13.7412 36.1475L13.7406 36.148C13.9146 36.1168 14.0876 36.0778 14.2605 36.0369L14.2332 36.0437C14.503 35.9785 14.7717 35.9099 15.0427 35.8487C18.8335 34.7791 22.6561 33.8118 26.4322 32.6786C26.1245 32.8459 25.8127 33.0052 25.495 33.1501L25.4949 33.1506Z" fill="#222C36"/>
<path d="M4.85003 7.2121C4.57705 7.28031 4.44803 7.55358 4.48867 7.79738C4.48591 7.96907 4.54193 8.18559 4.59925 8.36337C4.62639 8.51517 4.66108 8.65739 4.68473 8.76464C4.94262 9.82013 5.24477 10.8672 5.54184 11.9125C5.65242 12.2769 5.75836 12.6424 5.86576 13.0078C5.86706 13.011 5.86808 13.014 5.86895 13.0174C5.87098 13.0217 5.87243 13.0258 5.87359 13.0297V13.0293C5.8765 13.0373 5.87925 13.0445 5.88216 13.0519C5.88158 13.0513 5.88158 13.0508 5.88099 13.0496C5.88201 13.0526 5.88303 13.0553 5.88404 13.0583C5.88448 13.0596 5.88491 13.0609 5.88549 13.0621C5.88666 13.0654 5.88782 13.0689 5.88883 13.0717V13.0712C5.88927 13.0722 5.88956 13.0734 5.88999 13.0744L5.8897 13.0741C5.89057 13.0763 5.8913 13.0783 5.89188 13.0805C5.89188 13.0805 5.8913 13.0796 5.89101 13.0791C5.89391 13.0869 5.89725 13.0947 5.89957 13.1026C5.90001 13.1039 5.9003 13.105 5.90059 13.1063C5.90131 13.1084 5.90204 13.1103 5.90291 13.1123C5.90334 13.1136 5.90392 13.115 5.90436 13.1164C5.90392 13.1152 5.90363 13.1143 5.9032 13.1133C5.90523 13.119 5.90726 13.1246 5.90929 13.1307C5.93426 13.2026 5.95835 13.2742 5.98331 13.3462C6.00943 13.4221 6.04005 13.4964 6.07009 13.5707C6.06951 13.569 6.06893 13.5678 6.06835 13.5662C6.07067 13.5713 6.07227 13.5758 6.07401 13.581C6.07967 13.595 6.08548 13.6088 6.09143 13.6225C6.0923 13.6237 6.09346 13.6246 6.09447 13.6256C6.10202 13.6434 6.11029 13.661 6.11842 13.6787C6.11813 13.6794 6.11769 13.6802 6.1174 13.6809C6.12161 13.6902 6.12727 13.6987 6.13163 13.708C6.1682 13.7861 6.20738 13.8629 6.25164 13.9369C6.25251 13.9383 6.25309 13.9399 6.25397 13.9414C6.25469 13.9424 6.25556 13.9433 6.25643 13.9444L6.25745 13.9459C6.25788 13.9466 6.25832 13.9476 6.25875 13.9483L6.25934 13.9495C6.26717 13.9623 6.27515 13.9752 6.28328 13.988C6.30302 14.0093 6.32319 14.0302 6.3438 14.0502C6.34293 14.0494 6.34206 14.0485 6.34119 14.0481C6.34235 14.0491 6.34336 14.0499 6.34452 14.051C6.34336 14.0498 6.3422 14.0486 6.34119 14.0481C6.34467 14.0512 6.3483 14.0541 6.35178 14.0572C6.3525 14.0579 6.35352 14.0586 6.35425 14.0594C6.37384 14.0768 6.39314 14.0941 6.4136 14.1102C6.43552 14.1264 6.45801 14.1417 6.48065 14.1563C6.48065 14.1563 6.48104 14.1565 6.48181 14.1569C6.48181 14.1569 6.48239 14.1569 6.48297 14.1575L6.48239 14.1569C6.50314 14.1698 6.5252 14.1811 6.54712 14.1917C6.56526 14.2001 6.5834 14.2077 6.60256 14.2147C6.62186 14.2215 6.64174 14.2271 6.66148 14.2322C6.68136 14.2367 6.70168 14.2408 6.72272 14.243C6.75508 14.2463 6.78672 14.2475 6.8185 14.248C6.8616 14.248 6.90529 14.2457 6.94882 14.2424C7.00557 14.2266 7.06158 14.21 7.11659 14.1971C7.91361 13.9925 8.70498 13.7703 9.49924 13.5548C13.4382 12.4917 17.3769 11.5349 21.2662 10.2673C21.769 10.1573 22.2577 9.9728 22.7499 9.82158C22.9387 9.76397 23.2735 9.61754 23.1964 9.38853C23.1952 9.38055 23.1949 9.37286 23.1931 9.36459C23.035 8.5233 22.8288 7.6794 22.6018 6.85103C22.3117 5.74053 22.1074 4.60566 21.7691 3.50808C21.738 3.41854 21.6961 3.27182 21.6296 3.16675C21.6234 3.15818 21.6157 3.15354 21.6089 3.14643C21.5777 3.09839 21.5366 3.05935 21.4851 3.0328C21.4198 2.97953 21.3189 2.95124 21.1963 2.97707C19.0107 3.25875 16.8948 3.92081 14.7603 4.44863C12.6322 5.0049 10.496 5.52807 8.3799 6.12787C7.19684 6.46688 6.01596 6.81663 4.85046 7.21239L4.85003 7.2121ZM17.6985 4.63773C17.9275 4.58331 18.1551 4.52294 18.3828 4.4646C18.9438 4.31962 19.5009 4.16085 20.0587 4.00426C20.434 3.92604 20.8074 3.84027 21.1779 3.74768C21.3799 4.33631 21.5073 4.94844 21.6668 5.55013C21.669 5.56101 21.671 5.5719 21.6732 5.58278C21.9353 6.78079 22.1907 7.98764 22.5937 9.14734C21.8669 9.3643 21.1465 9.60433 20.4216 9.82913C19.3671 10.1065 18.317 10.4038 17.2634 10.6784C14.7243 11.3711 12.1438 11.9018 9.58704 12.5248C8.70672 12.7324 7.82915 12.9495 6.95274 13.1745C6.94519 13.1767 6.93692 13.1786 6.92923 13.1806C6.81023 12.7077 6.67352 12.2379 6.54683 11.7671C6.24918 10.724 6.02191 9.66282 5.69306 8.6288C5.63327 8.44058 5.57435 8.25032 5.50628 8.06398C6.63463 7.69202 7.77429 7.35287 8.91729 7.02808C11.8304 6.19637 14.7925 5.50325 17.6985 4.63773Z" fill="#222C36"/>
<path d="M5.88366 13.0597L5.88337 13.0586L5.88277 13.0573C5.88307 13.0581 5.88337 13.0588 5.88366 13.0597Z" fill="#222C36"/>
<path d="M6.41566 14.112C6.41476 14.1113 6.41398 14.1104 6.41308 14.1098L6.41269 14.1095C6.41372 14.1106 6.41476 14.1109 6.41566 14.112Z" fill="#222C36"/>
<path d="M6.54599 14.1912L6.54558 14.1909C6.54449 14.1904 6.5434 14.1901 6.54231 14.1896C6.5434 14.1901 6.54503 14.1907 6.54599 14.1912Z" fill="#222C36"/>
<path d="M22.9749 10.7908C22.2288 11.0032 21.4916 11.2409 20.7463 11.4552C16.612 12.719 12.4697 13.9621 8.34093 15.2437C8.03661 15.3486 7.71385 15.4166 7.41968 15.5441C7.3432 15.5837 7.28544 15.6406 7.24365 15.7061C7.13379 15.8043 7.08067 15.9965 7.10084 16.1484C7.19387 17.6499 7.52417 19.127 7.8388 20.5943C7.85883 20.666 7.87929 20.7377 7.89961 20.8094C7.93923 20.9465 7.97841 21.0844 8.01469 21.2221C8.05098 21.3627 8.08494 21.5038 8.1173 21.645C8.15024 21.7925 8.1813 21.9398 8.208 22.0878C8.23412 22.2312 8.26184 22.3741 8.29014 22.5163C8.29014 22.5152 8.28956 22.5134 8.28956 22.5118C8.2913 22.5198 8.29246 22.5277 8.29406 22.5356C8.29406 22.5339 8.29348 22.5323 8.29348 22.5311C8.3212 22.6677 8.3524 22.8038 8.38418 22.9398C8.41814 23.0844 8.45166 23.2289 8.48446 23.3735C8.51683 23.5157 8.54846 23.658 8.57807 23.8003C8.58997 23.8566 8.60143 23.9132 8.6129 23.9696C8.96076 25.359 9.34288 26.7399 9.75663 28.1115C10.0996 29.2821 10.4442 30.4528 10.8189 31.6138C10.8632 31.7193 10.8966 31.8609 10.9397 32.0033C10.9493 32.0219 10.9588 32.0404 10.969 32.0584C10.9886 32.0927 11.0088 32.1259 11.0321 32.158C11.0339 32.1597 11.0355 32.1613 11.036 32.1637H11.0366V32.1642L11.0372 32.1648C11.0577 32.1909 11.0786 32.2159 11.1018 32.2391C11.1006 32.238 11.0995 32.2368 11.0979 32.2358C11.1252 32.2625 11.1536 32.2874 11.1835 32.3115C11.1855 32.3131 11.1878 32.3144 11.19 32.316V32.3165C11.2251 32.3432 11.2611 32.368 11.2987 32.3908L11.2996 32.3915L11.2999 32.3918C11.3006 32.3922 11.3012 32.3925 11.3019 32.3928L11.3025 32.3931C11.3057 32.395 11.3092 32.3963 11.3125 32.3982C11.3484 32.4183 11.3848 32.4378 11.4224 32.4546C11.4241 32.4552 11.4257 32.4558 11.4274 32.457L11.4266 32.4561L11.4273 32.4564C11.4611 32.471 11.4958 32.4838 11.5319 32.4951C11.5302 32.4945 11.5286 32.494 11.5274 32.4934L11.5287 32.4938C11.5311 32.4945 11.5338 32.4954 11.5364 32.4961H11.5359C11.5359 32.4961 11.5344 32.4958 11.5337 32.4958C11.5347 32.4961 11.5356 32.4963 11.5366 32.4966L11.5372 32.4967H11.5377C11.5464 32.4992 11.5547 32.5005 11.5633 32.5027C11.5829 32.5076 11.6025 32.5128 11.6222 32.5163C11.621 32.5157 11.6193 32.5157 11.6177 32.5151H11.6181C11.6194 32.5154 11.6209 32.5162 11.6222 32.5163C11.6213 32.5159 11.6199 32.5154 11.6187 32.5151C11.6299 32.5169 11.6411 32.517 11.6522 32.5182C11.6755 32.5208 11.6987 32.5239 11.7218 32.525L11.7223 32.5247C11.7276 32.525 11.7326 32.5259 11.7377 32.5262C12.2761 32.4796 12.7995 32.3252 13.3637 32.239C14.9521 31.9335 16.527 31.5582 18.1013 31.1874C20.542 30.6191 22.9562 29.9395 25.3511 29.2044C25.9566 29.0632 26.5555 28.8898 27.1511 28.7065C27.5499 28.6155 27.9394 28.4882 28.3169 28.3296C28.4433 28.2911 28.5764 28.226 28.6865 28.1391C28.878 28.0153 28.9737 27.8299 28.9424 27.5802C28.9589 27.4903 28.8981 27.3718 28.8758 27.2862C28.8382 27.1297 28.7957 26.9736 28.7397 26.8219C28.7388 26.818 28.7389 26.8144 28.7379 26.8103C28.3139 25.4622 27.8418 24.1323 27.4494 22.7729C26.4863 19.4584 25.4326 16.1729 24.4797 12.8558C24.3174 12.4348 23.9146 10.8607 23.532 10.697C23.484 10.6878 23.4432 10.6878 23.4085 10.6948C23.2674 10.6968 23.0943 10.7697 22.9749 10.7908ZM20.3551 12.9772C20.5051 13.5983 20.6658 14.2165 20.8293 14.8342C20.8003 14.8429 20.7716 14.8514 20.7426 14.8603C20.7565 14.8562 20.7706 14.8519 20.7845 14.8478C19.9312 15.1067 19.0774 15.3653 18.2246 15.6268C18.0939 15.1777 17.9598 14.7291 17.8179 14.2824C17.7276 13.9951 17.6337 13.709 17.5366 13.4238C18.2445 13.1877 18.9504 12.9451 19.6538 12.6949C19.846 12.6416 20.0381 12.5889 20.2301 12.5363C20.2735 12.6834 20.3237 12.8299 20.3551 12.9772ZM24.8634 16.835C24.489 16.9584 24.1176 17.0891 23.7432 17.2154C23.2104 17.3965 22.6765 17.5746 22.1426 17.7532C21.9365 16.9385 21.7236 16.1256 21.4978 15.3166C21.7166 15.2375 21.9345 15.1558 22.1527 15.0751C22.8136 14.8388 23.5095 14.6977 24.1733 14.4747C24.3945 15.265 24.6225 16.0499 24.8634 16.835ZM21.9835 29.1417C21.6807 28.3405 21.4177 27.5253 21.1737 26.7039C21.5409 26.602 21.9068 26.4952 22.2722 26.3865C22.7052 26.2623 23.1383 26.1389 23.5639 25.9922C23.8073 26.903 24.0569 27.8114 24.3103 28.7172C23.5623 28.9277 22.8148 29.1398 22.0668 29.3474C22.0395 29.2781 22.0069 29.2098 21.9835 29.1417ZM14.6848 31.1533C14.4957 30.4445 14.2893 29.7402 14.0883 29.0346C14.8829 28.7822 15.6773 28.5287 16.4699 28.2701C16.6621 29.0535 16.8767 29.8296 17.1313 30.5918C16.3167 30.7838 15.5021 30.9757 14.6884 31.1709C14.6868 31.1649 14.6867 31.1594 14.6848 31.1533ZM13.9269 28.0338C13.8909 28.045 13.8549 28.0562 13.819 28.0675C13.7222 27.7089 13.6293 27.3493 13.5437 26.9878C13.4544 26.5906 13.3662 26.1931 13.2782 25.7954C14.0893 25.4814 14.9075 25.1865 15.7273 24.8958C15.8984 25.7039 16.0653 26.5142 16.2469 27.3203C15.4734 27.5574 14.6994 27.7934 13.9269 28.0338ZM10.4551 26.8966C10.6129 26.8827 10.7799 26.8178 10.9291 26.7453C11.3967 26.5618 11.8605 26.3693 12.3248 26.1777C12.4876 26.9109 12.6677 27.64 12.8592 28.366C12.2577 28.5534 11.6565 28.7415 11.0559 28.9314C10.8535 28.2539 10.6522 27.576 10.4551 26.8966ZM9.30456 22.5744C9.09689 21.7035 8.89168 20.8322 8.6901 19.96C8.99487 19.8442 9.29818 19.7247 9.60207 19.6051C10.0215 19.4378 10.4423 19.2748 10.8642 19.1142C11.0413 19.9765 11.2246 20.8378 11.4076 21.6991C11.317 21.7369 11.2262 21.773 11.1357 21.8112C10.5259 22.0659 9.91525 22.3198 9.30456 22.5744ZM11.665 18.8133C12.5243 18.4926 13.3859 18.178 14.2466 17.8609C14.4103 18.7009 14.5891 19.5388 14.7687 20.3762C13.9368 20.6875 13.1073 21.0063 12.2819 21.3389C12.0854 20.4948 11.881 19.6525 11.665 18.8133ZM14.7781 15.8812C14.6623 15.398 14.5675 14.9031 14.4111 14.4298C15.3162 14.1479 16.2192 13.8594 17.1194 13.5624C17.2034 14.0087 17.3205 14.4489 17.4236 14.8911C17.4992 15.1954 17.5735 15.5001 17.6481 15.8048C16.7474 16.0827 15.8482 16.3651 14.9515 16.6548C14.8937 16.3969 14.8364 16.1388 14.7781 15.8812ZM21.0042 15.492C21.2203 16.3009 21.4373 17.1097 21.6393 17.9223C21.1967 18.071 20.7543 18.2207 20.313 18.3739C19.9042 18.5206 19.4952 18.6665 19.0865 18.8122C18.8793 18.0008 18.6664 17.191 18.441 16.384C19.2968 16.0907 20.1522 15.7953 21.0042 15.492ZM18.4348 19.0447C17.5199 19.3709 16.6059 19.6979 15.6948 20.0322C15.5143 19.1989 15.3326 18.3658 15.1482 17.5333C16.0424 17.2109 16.9404 16.899 17.8398 16.5905C18.0382 17.4084 18.2354 18.2269 18.4348 19.0447ZM18.741 20.289C18.9304 21.0528 19.1179 21.817 19.3083 22.5805C18.5284 22.8511 17.7513 23.1336 16.9703 23.4196C16.8026 23.4765 16.635 23.5334 16.4673 23.5903C16.3975 23.2729 16.3273 22.9556 16.2559 22.6385C16.1386 22.0908 16.0212 21.543 15.9032 20.9954C16.8188 20.641 17.7362 20.2866 18.6513 19.9253C18.6812 20.0465 18.711 20.1679 18.741 20.289ZM12.7224 22.2429C13.4699 21.9425 14.2225 21.6478 14.9775 21.3545C15.1071 21.9662 15.2338 22.578 15.3512 23.1907C15.4076 23.4315 15.4619 23.673 15.5155 23.9149C14.6926 24.1976 13.8732 24.4876 13.0579 24.7963C12.877 23.9747 12.6957 23.153 12.5096 22.3323C12.5806 22.3027 12.6514 22.2724 12.7224 22.2429ZM16.6795 24.5575C17.6378 24.2171 18.5938 23.8704 19.5373 23.4897C19.7612 24.37 19.9923 25.2483 20.2403 26.122C19.9866 26.1951 19.7329 26.2687 19.4795 26.3431C18.8417 26.5308 18.2046 26.7202 17.5685 26.9135C17.4552 26.9479 17.3421 26.9834 17.2288 27.018C17.0393 26.1993 16.8589 25.3785 16.6795 24.5575ZM23.1917 25.3635C22.982 25.4016 22.775 25.4587 22.5675 25.5069C22.1707 25.5982 21.7761 25.6985 21.3833 25.8034C21.2377 25.842 21.093 25.8837 20.9478 25.9237C20.6982 25.0404 20.4638 24.1522 20.2236 23.2672C20.5107 23.1455 20.8167 23.0476 21.1136 22.9466C21.6312 22.7809 22.1484 22.6114 22.6586 22.424C22.8904 23.3964 23.1345 24.3661 23.3886 25.3328C23.322 25.3386 23.255 25.3524 23.1917 25.3635ZM22.4411 21.5928C21.6114 21.8209 20.795 22.0776 19.9837 22.35C19.7524 21.4556 19.5285 20.5604 19.3029 19.6657C20.1432 19.3301 20.9801 18.9866 21.8108 18.6315C21.8818 18.9331 21.9506 19.2352 22.0152 19.5384C22.1556 20.2232 22.3064 20.9063 22.463 21.5883C22.4559 21.5902 22.4481 21.5903 22.4411 21.5928ZM13.7291 14.6406C13.8192 15.4107 13.9378 16.1772 14.0742 16.9411C13.1835 17.2348 12.296 17.5384 11.4125 17.8538C11.2175 17.1328 11.0121 16.4146 10.7925 15.7001C10.776 15.6505 10.7596 15.6007 10.743 15.5509C10.7991 15.5335 10.8548 15.5154 10.9108 15.4981C11.8509 15.2148 12.7909 14.9299 13.7291 14.6406ZM10.2277 15.713C10.3598 16.518 10.5072 17.3209 10.6651 18.1221C9.92918 18.3977 9.1934 18.6726 8.46342 18.9646C8.35022 18.4687 8.23528 17.9734 8.12441 17.477C8.04662 17.1353 7.96942 16.7929 7.87581 16.4549C8.02239 16.4147 8.16766 16.3483 8.31177 16.3149C8.95162 16.1187 9.5893 15.9146 10.2277 15.713ZM9.54808 23.5746C9.64836 23.5276 9.7456 23.4826 9.8347 23.4521C10.4313 23.2068 11.0255 22.9562 11.6196 22.7057C11.7315 23.2401 11.8421 23.7746 11.9479 24.3095C11.9994 24.5954 12.0541 24.8806 12.1111 25.1653C11.7802 25.2981 11.4498 25.4336 11.1204 25.5757C10.8748 25.7057 10.4619 25.7889 10.1871 25.9593C9.96357 25.1673 9.74952 24.3726 9.54808 23.5746ZM11.9319 31.8698C11.8064 31.3824 11.6324 30.9046 11.5003 30.4181C11.4492 30.2466 11.3978 30.0752 11.3466 29.9036C11.8936 29.7305 12.441 29.5579 12.9884 29.3839C13.0337 29.3696 13.079 29.3552 13.1242 29.3408C13.3168 30.0297 13.5185 30.7163 13.7285 31.4006C13.1254 31.5412 12.5188 31.6768 11.9319 31.8698ZM18.0913 30.3628C17.9792 29.8903 17.806 29.4272 17.7 28.9519C17.6137 28.6187 17.5311 28.2848 17.45 27.9504C18.4301 27.6305 19.41 27.3091 20.3851 26.9746C20.3969 26.9702 20.4348 26.9574 20.4799 26.9421C20.5926 27.321 20.7082 27.699 20.8291 28.0758C20.9915 28.5553 21.1209 29.078 21.3341 29.5485C21.1878 29.5883 21.0415 29.6286 20.8952 29.6678C19.9637 29.9119 19.0279 30.1393 18.0913 30.3628ZM28.1139 27.0111C28.1158 27.0159 28.1185 27.0196 28.1207 27.0242C28.1898 27.228 28.2414 27.4404 28.311 27.6448C28.252 27.6632 28.1931 27.6813 28.1341 27.6999C28.1332 27.6999 28.1323 27.6996 28.1314 27.6996C27.0937 27.9502 26.0596 28.2296 25.0268 28.5171C25.0134 28.4807 25.0001 28.4444 24.9879 28.4086C24.4136 26.5637 23.9172 24.695 23.3978 22.8337C23.0284 21.3746 22.6803 19.9083 22.3167 18.446C22.4587 18.3934 22.6002 18.3397 22.7441 18.2847C23.5037 17.9899 24.2906 17.7377 25.0567 17.4569C25.2131 17.952 25.3752 18.4481 25.5453 18.9467C26.3847 21.6401 27.1061 24.3719 28.1139 27.0111ZM23.6921 12.7152C23.796 13.1025 23.9006 13.4868 24.006 13.8701C23.1111 14.1535 22.2192 14.4171 21.3193 14.6867C21.1006 13.9296 20.8685 13.1764 20.6188 12.4286C21.3254 12.2321 22.0287 12.0257 22.7187 11.7675C22.7517 11.7533 22.7853 11.7401 22.8197 11.7275C22.9763 11.6839 23.1328 11.6397 23.2888 11.5934C23.3127 11.5826 23.3406 11.5741 23.3695 11.566C23.4805 11.9479 23.5914 12.3303 23.6921 12.7152Z" fill="#222C36"/>
<path d="M10.9696 32.0589L10.9694 32.0585C10.9686 32.0571 10.9677 32.0559 10.967 32.0545C10.9681 32.0562 10.9685 32.0574 10.9696 32.0589Z" fill="#222C36"/>
<path d="M11.1872 32.3148C11.1861 32.3138 11.1852 32.3128 11.1841 32.3119L11.1835 32.3115C11.1846 32.3126 11.1863 32.3138 11.1872 32.3148Z" fill="#222C36"/>
</svg>
